# xmcd
#
# Track frame offsets:
#	150
#	11995
#	34948
#	47032
#	62899
#	81341
#	99263
#	117150
#	135923
#
# Disc length: 1949 seconds
#
# Revision: 0
# Processed by: cddbd v1.5.2PL0 Copyright (c) Steve Scherf et al.
# Submitted via: audiograbber 1.83.01
#
DISCID=72079b09
DTITLE=Ondrej Skoch - Nitky
DYEAR=2002
DGENRE=Blues
TTITLE0=Motyli
TTITLE1=Nitky
TTITLE2=Dvere
TTITLE3=Listi
TTITLE4=Hvezda
TTITLE5=Zari
TTITLE6=Mlha
TTITLE7=Letici andele vahavi
TTITLE8=Boze muj, ochranuj ... 
EXTD=
EXTT0=
EXTT1=
EXTT2=
EXTT3=
EXTT4=
EXTT5=
EXTT6=
EXTT7=
EXTT8=
PLAYORDER=
